<svg width="1440" height="540" viewBox="0 0 1440 540" fill="none" xmlns="http://www.w3.org/2000/svg">
<path d="M-5.5 -5.5H1439.5V430.724C1456.4 436.497 1439.5 447 1439.5 447V430.724C1413.09 421.7 1304.11 424.234 919 496.5C287.5 615 -5.5 447 -5.5 447V-5.5Z" fill="#0F0A0A" fill-opacity="0.77"/>
<path d="M-5.5 -5.5H1439.5V447C1439.5 447 1550.5 378 919 496.5C287.5 615 -5.5 447 -5.5 447V-5.5Z" stroke="black"/>
<g clip-path="url(#clip0)">
<path d="M1371 377.758H1096V378.885H1371V377.758Z" fill="#3F3D56"/>
<path d="M1272.73 132.458C1272.73 132.458 1261.04 134.404 1255.04 133.313C1249.03 132.221 1237.12 138.416 1237.12 138.416L1205.63 150.074C1205.63 150.074 1177.15 173.41 1173.14 157.15C1170.9 148.044 1200.25 140.725 1200.25 140.725L1251.85 116.011L1270.62 109.523L1272.73 132.458Z" fill="#FFB9B9"/>
<path d="M1274.98 200.459L1266.75 208.348L1268.22 242.723C1268.22 242.723 1269.91 287.805 1269.34 289.496C1268.78 291.186 1258.64 359.936 1258.64 359.936C1258.64 359.936 1270.47 365.571 1281.18 362.19C1281.18 362.19 1291.88 311.473 1291.88 296.821L1304.28 245.541L1323.44 304.147C1323.44 304.147 1324.57 343.594 1326.82 356.555C1329.08 369.516 1329.08 371.207 1329.08 371.207C1329.08 371.207 1347.11 376.278 1351.62 371.207C1351.62 371.207 1349.36 304.711 1347.67 297.948L1343.73 217.364L1274.98 200.459Z" fill="#2F2E41"/>
<path d="M1263.14 359.936C1263.14 359.936 1262.02 358.246 1258.64 362.754C1255.26 367.262 1244.55 375.715 1244.55 375.715C1244.55 375.715 1215.25 396.565 1237.22 397.692C1259.2 398.819 1263.14 387.549 1263.14 387.549C1263.14 387.549 1281.74 384.168 1282.3 380.223C1282.87 376.278 1280.05 360.5 1280.05 360.5L1263.14 359.936Z" fill="#2F2E41"/>
<path d="M1330.2 370.08C1330.2 370.08 1326.26 383.604 1327.39 389.239C1328.51 394.875 1325.13 415.725 1340.91 414.035C1356.69 412.344 1351.62 394.311 1351.62 394.311L1346.55 371.207L1330.2 370.08Z" fill="#2F2E41"/>
<path d="M1307.95 75.0745C1318.22 75.0745 1326.54 66.7487 1326.54 56.4782C1326.54 46.2077 1318.22 37.8819 1307.95 37.8819C1297.67 37.8819 1289.35 46.2077 1289.35 56.4782C1289.35 66.7487 1297.67 75.0745 1307.95 75.0745Z" fill="#FFB9B9"/>
<path d="M1296.96 66.3398C1296.96 66.3398 1302.59 86.0632 1298.08 93.389C1293.58 100.715 1328.51 94.5161 1330.77 87.7538C1330.77 87.7538 1319.5 75.3562 1321.19 63.5222L1296.96 66.3398Z" fill="#FFB9B9"/>
<path d="M1305.97 92.8255C1305.97 92.8255 1321.4 93.8684 1328.9 85.4576L1348.97 94.0351C1351.16 94.9723 1352.97 96.626 1354.1 98.7257C1355.24 100.825 1355.62 103.247 1355.19 105.593L1344.86 162.703C1344.86 162.703 1349.59 198.768 1347.11 223C1344.87 244.892 1263.71 223 1266.53 204.403C1266.83 202.411 1267.11 200.373 1267.36 198.323C1269.73 180.006 1273.16 161.842 1277.62 143.92C1279.12 137.798 1274.98 102.969 1274.98 102.969L1299.78 86.5338C1299.78 86.5338 1300.9 92.8255 1305.97 92.8255Z" fill="#FF0000"/>
<path d="M1289.25 101.512L1284.53 96.6649L1250 116.115C1250 116.115 1260.11 133.789 1264.1 133.844C1265.62 133.865 1283.75 134.751 1288.16 128.891C1295.27 119.461 1289.25 101.512 1289.25 101.512Z" fill="#FF0000"/>
<path d="M1303.38 44.3099C1306.14 43.8782 1308.92 43.6024 1311.71 43.4838C1313.73 43.3979 1315.84 43.4115 1317.67 44.2818C1320.42 45.5939 1321.96 48.56 1322.97 51.4395C1323.99 54.3189 1324.7 57.3962 1326.58 59.804C1329.7 56.5478 1330.32 51.7069 1330.78 47.2216C1331.11 44.0667 1331.4 40.7028 1329.94 37.8864C1329.04 36.1518 1327.56 34.8 1326.06 33.5503C1318.89 27.5845 1309.79 22.8902 1300.56 24.2301L1300.34 25.655C1298.77 25.6076 1297.19 25.7067 1295.64 25.9508L1295.97 29.4858L1291.06 29.7968L1290.88 33.4809L1285.92 33.6528C1286.01 35.0686 1286.63 36.3989 1287.65 37.3875C1286.88 37.9385 1286.02 38.3297 1285.1 38.5376C1285.93 41.7379 1286.73 44.9454 1287.58 48.1385C1288.21 50.4907 1288.1 52.5689 1290.62 51.421C1292.54 50.5469 1293.84 47.7676 1295.79 46.6193C1298.07 45.2664 1300.78 44.7157 1303.38 44.3099Z" fill="#2F2E41"/>
<path d="M1364.43 126.418L1364.7 146.278L1358.98 203.199C1358.98 203.199 1362.07 233.292 1352.74 234.275C1336.09 236.031 1348.36 201.317 1348.36 201.317L1348.63 167.741C1348.63 167.741 1350.41 154.43 1347.35 149.152C1344.28 143.875 1342.14 132.221 1342.14 132.221L1364.43 126.418Z" fill="#FFB9B9"/>
<path d="M1348.8 95.6431C1351.08 95.6425 1353.3 96.3839 1355.13 97.7556C1356.95 99.1273 1358.28 101.055 1358.92 103.248C1362.51 115.718 1369.05 139.185 1367.4 139.598C1365.14 140.162 1338.66 141.852 1338.66 141.852L1348.8 95.6431Z" fill="#FF0000"/>
<path d="M1143.13 191.252L1143.26 191.285C1145.72 191.879 1147.93 193.234 1149.58 195.158C1151.22 197.082 1152.22 199.476 1152.42 201.999C1152.63 204.522 1152.03 207.045 1150.72 209.209C1149.4 211.373 1147.44 213.067 1145.11 214.05C1144.19 214.44 1143.23 214.712 1142.24 214.86C1140.49 215.127 1138.7 215.004 1137.01 214.5C1135.31 213.997 1133.74 213.124 1132.42 211.946C1131.1 210.767 1130.06 209.311 1129.36 207.682C1128.67 206.053 1128.34 204.291 1128.41 202.521C1128.48 200.752 1128.93 199.019 1129.75 197.446C1130.56 195.874 1131.71 194.5 1133.12 193.423C1134.52 192.347 1136.15 191.594 1137.88 191.219C1139.61 190.843 1141.4 190.854 1143.13 191.252V191.252Z" fill="#FF0000"/>
<path d="M1143.13 191.252C1144.29 198.799 1144.95 206.415 1145.11 214.05C1144.19 214.44 1143.23 214.712 1142.24 214.86C1142.31 206.841 1141.61 198.833 1140.15 190.948C1141.15 190.925 1142.15 191.027 1143.13 191.252Z" fill="#E6E6E6"/>
<path d="M1190.99 193.762L1149.74 195.436L1150.9 209.092L1191.9 202.908C1192.62 202.808 1193.28 202.426 1193.73 201.845C1194.18 201.265 1194.39 200.531 1194.31 199.801L1194.25 199.318L1195.87 199.251C1196.07 199.243 1196.26 199.193 1196.44 199.105C1196.62 199.017 1196.78 198.892 1196.9 198.739C1197.03 198.586 1197.12 198.408 1197.18 198.217C1197.23 198.026 1197.24 197.825 1197.22 197.628L1197.21 197.56C1197.15 197.196 1196.96 196.867 1196.67 196.641C1196.38 196.416 1196.01 196.312 1195.65 196.351L1193.93 196.534L1193.9 196.251C1193.82 195.546 1193.47 194.897 1192.93 194.436C1192.39 193.974 1191.7 193.734 1190.99 193.762Z" fill="#3F3D56"/>
<path d="M1168.14 201.801C1168.1 201.979 1168 202.137 1167.86 202.253C1167.72 202.369 1167.54 202.435 1167.36 202.443L1164.4 202.566C1164.19 202.573 1164 202.508 1163.84 202.382C1163.68 202.256 1163.57 202.077 1163.54 201.879L1163.24 200.241C1163.21 200.128 1163.22 200.011 1163.24 199.899C1163.27 199.786 1163.32 199.681 1163.39 199.588C1163.46 199.496 1163.54 199.418 1163.65 199.361C1163.75 199.304 1163.86 199.268 1163.97 199.256L1166.97 198.936C1167.19 198.913 1167.4 198.974 1167.57 199.107C1167.75 199.241 1167.86 199.435 1167.89 199.65L1167.89 199.65L1168.15 201.485C1168.17 201.59 1168.16 201.698 1168.14 201.801V201.801ZM1163.79 200.024C1163.78 200.062 1163.78 200.102 1163.79 200.14L1164.09 201.778C1164.1 201.844 1164.13 201.904 1164.19 201.946C1164.24 201.988 1164.3 202.009 1164.37 202.007L1167.34 201.884C1167.37 201.883 1167.41 201.873 1167.45 201.855C1167.48 201.838 1167.51 201.813 1167.54 201.783C1167.56 201.753 1167.58 201.718 1167.59 201.681C1167.6 201.643 1167.61 201.603 1167.6 201.565L1167.33 199.731C1167.32 199.659 1167.29 199.594 1167.23 199.55C1167.17 199.505 1167.1 199.485 1167.03 199.493L1164.03 199.812C1163.99 199.816 1163.96 199.828 1163.92 199.847C1163.89 199.866 1163.86 199.892 1163.84 199.923C1163.81 199.953 1163.8 199.988 1163.79 200.024V200.024Z" fill="#E6E6E6"/>
</g>
<g clip-path="url(#clip1)">
<path d="M443.837 297.31L441.675 270.445L435.5 298.854C435.5 298.854 435.581 306.021 435.786 313.872H443.698C443.964 304.898 443.837 297.31 443.837 297.31Z" fill="#F2F2F2"/>
<path d="M332.699 306.864C332.091 304.352 331.661 301.8 331.414 299.227L330.549 289.934C330.186 287.388 329.812 285.146 329.437 283.166C326.684 269.053 323.842 268.543 323.842 268.543C323.719 268.636 323.601 268.74 323.479 268.847C323.145 269.151 322.834 269.479 322.548 269.829C318.022 275.582 314.951 290.504 313.337 300.403C312.447 305.871 312.003 309.805 312.003 309.805C312.003 309.805 312.406 311.481 312.956 313.872H333.612C333.534 311.512 333.228 309.165 332.699 306.864V306.864Z" fill="#F2F2F2"/>
<path d="M495.121 46H204.879C170.295 46 142 74.2954 142 108.879V250.993C142 285.577 170.295 313.872 204.879 313.872H296.87L295.683 308.283C295.683 308.283 292.629 288.58 295.683 273.218C296.669 268.398 297.345 263.521 297.708 258.614C298.09 253.076 298.995 247.585 300.412 242.217C300.493 241.907 300.584 241.6 300.668 241.291C299.923 241.089 299.581 240.927 299.754 240.825C300.231 240.543 300.493 239.68 300.624 238.585C301.437 231.336 302.988 224.189 305.253 217.255C302.168 219.192 300.119 219.398 298.778 218.647C294.066 217.36 296.022 206.761 296.022 206.761C296.022 206.761 298.951 183.837 299.924 175.537C300.483 170.766 307.649 168.062 313.993 166.594C314.661 165.16 315.143 163.716 314.837 162.2C314.816 162.098 314.787 161.999 314.76 161.899C313.953 160.108 312.313 158.634 311.698 156.779C311.426 156.279 311.233 155.74 311.129 155.181C310.584 152 313.558 149.252 314.416 146.193C313.541 145.348 312.888 144.301 312.514 143.144C311.207 140.463 311.844 137.246 316.041 134.763C316.879 134.267 317.766 133.829 318.668 133.409C318.998 133.196 319.358 133.031 319.735 132.92C322.737 131.562 325.755 130.248 327.552 127.603C328.015 126.922 328.421 126.132 329.17 125.774C329.522 125.623 329.9 125.539 330.283 125.525C336.069 125.081 341.308 130.042 347.066 129.331C348.81 129.116 350.591 128.382 352.265 128.91C353.365 129.257 354.224 130.102 354.963 130.976C356.975 133.378 358.433 136.195 359.231 139.226C360.029 142.256 360.148 145.425 359.58 148.507C358.85 152.3 357.075 156.21 358.354 159.86C359.294 162.541 361.811 164.717 361.829 167.554C361.843 169.888 360.186 171.751 358.585 173.567C358.794 173.78 358.996 173.999 359.194 174.223C363.106 178.68 362.367 182.484 361.815 184.008L361.815 184.008L359.803 203.422L358.107 216.446C358.107 216.446 357.688 221.791 353.737 222.963C352.586 223.496 351.078 223.636 349.096 223.033C347.81 222.641 346.727 222.25 345.807 221.87C346.676 224.646 348.172 230.314 347.929 235.815C347.59 243.496 348.608 244.164 348.608 244.164C348.544 244.243 348.472 244.315 348.392 244.378C352.422 253.281 352.459 262.416 348.269 271.548C343.519 281.901 348.608 305.946 348.608 305.946C348.608 305.946 348.97 309.696 349.133 313.872H421.994C420.835 302.819 419.443 291.753 418.825 290.517C417.805 288.478 419.1 254.884 419.583 243.215C419.368 243.161 419.158 243.106 418.961 243.049C418.616 242.95 418.306 242.847 418.02 242.742C418.006 243.335 418.069 243.929 418.207 244.506C418.636 245.507 417.607 246.242 415.86 246.744C416.876 251.705 418.132 260.937 413.884 262.725C409.514 264.565 409.427 253.389 409.667 247.563C409.116 247.584 408.563 247.594 408.017 247.594C402.767 247.594 409.561 186.762 409.252 182.747C408.943 178.733 411.722 162.367 411.722 162.367C411.722 162.367 412.649 158.97 415.428 158.353C418.207 157.735 431.485 150.015 431.485 150.015C432.232 148.966 433.176 148.072 434.264 147.384V146.927C434.611 146.605 434.979 146.307 435.366 146.035C435.204 143.337 434.839 139.856 434.573 137.505C433.081 135.984 432.073 134.055 431.676 131.961C431.107 131.517 430.567 131.037 430.059 130.524C428.784 129.062 428.053 127.205 427.988 125.266C427.931 123.341 428.21 121.42 428.812 119.59C428.969 118.982 429.21 118.398 429.527 117.856C429.964 117.228 430.512 116.685 431.144 116.253C431.331 116.114 431.525 115.984 431.718 115.853C432.127 115.058 432.727 114.376 433.465 113.87C435.041 112.835 437.069 112.92 438.954 112.967C438.982 112.967 439.011 112.967 439.039 112.967C439.389 112.911 439.74 112.865 440.092 112.828C440.298 112.787 440.487 112.687 440.637 112.54C440.787 112.393 440.891 112.206 440.936 112.001C441.191 112.246 441.446 112.491 441.701 112.736C442.084 112.73 442.467 112.737 442.849 112.756C443.018 112.368 443.217 111.994 443.444 111.638C443.584 112.036 443.724 112.435 443.864 112.834C444.248 112.875 444.63 112.927 445.011 112.993C445.311 112.754 445.611 112.516 445.912 112.277C445.978 112.224 446.217 113.006 446.338 113.274C446.544 113.327 446.75 113.383 446.954 113.447C447.273 113.432 447.628 113.372 447.825 113.376C448.911 113.339 449.986 113.607 450.928 114.149C451.751 114.748 452.425 115.526 452.9 116.426C454.114 118.345 454.867 120.519 455.102 122.777C455.692 123.594 456.107 124.523 456.324 125.507C456.833 128.607 453.887 131.197 453.304 134.284C452.992 135.931 453.348 137.754 452.509 139.205C452.142 139.79 451.661 140.294 451.094 140.689C450.76 140.938 450.411 141.168 450.049 141.377C450.068 143.244 450.282 145.104 450.688 146.927L451.085 148.451C451.703 148.896 452.369 149.411 453.101 150.015C453.101 150.015 461.747 153.721 464.835 155.574C467.55 157.202 470.501 157.401 471.385 159.523L471.628 159.588C471.628 159.588 474.716 193.864 475.025 199.731C475.334 205.598 479.039 241.727 478.422 243.271C478.193 243.843 476.737 244.498 474.979 245.02C476.005 249.709 477.662 259.909 473.172 261.799C468.621 263.715 468.715 251.513 468.986 245.941C468.38 245.886 467.982 245.727 467.923 245.433C467.873 245.182 467.712 244.048 467.479 242.319C467.094 242.379 466.695 242.441 466.271 242.505C466.185 242.518 466.096 242.531 466.009 242.545C469.924 254.86 461.253 287.52 459.585 293.913C458.714 297.254 457.774 305.514 456.927 313.872H495.121C529.705 313.872 558 285.577 558 250.993V108.879C558 74.2954 529.705 46 495.121 46Z" fill="#F2F2F2"/>
<path d="M235.134 159.291C258.403 159.291 277.267 142.126 277.267 120.951C277.267 99.7762 258.403 82.6107 235.134 82.6107C211.865 82.6107 193.002 99.7762 193.002 120.951C193.002 142.126 211.865 159.291 235.134 159.291Z" fill="#3F3D56"/>
<path d="M304.542 246.239C304.542 246.239 318.733 236.482 318.733 232.047C318.733 227.612 328.49 198.785 333.812 211.646C339.134 224.507 326.273 242.691 326.273 242.691C326.273 242.691 312.081 268.414 303.655 272.849C295.228 277.284 288.132 274.623 288.132 274.623V262.648L296.24 250.649C297.158 249.291 298.394 248.178 299.842 247.41C301.289 246.641 302.903 246.239 304.542 246.239V246.239Z" fill="#FFB9B9"/>
<path d="M264.203 178.311C264.203 178.311 285.471 185.036 287.689 188.141C289.906 191.245 290.793 185.923 297.002 206.324C303.211 226.725 304.763 246.461 304.763 246.461C304.763 246.461 289.463 251.561 291.237 271.518C293.011 291.475 288.576 313.207 288.576 313.207H283.039L270.836 275.51L285.471 218.299C285.471 218.299 264.666 183.117 264.203 178.311Z" fill="#575A89"/>
<path d="M257.087 159.757C271.784 159.757 283.697 147.843 283.697 133.147C283.697 118.451 271.784 106.537 257.087 106.537C242.391 106.537 230.478 118.451 230.478 133.147C230.478 147.843 242.391 159.757 257.087 159.757Z" fill="#FFB9B9"/>
<path d="M267.288 153.105C267.288 153.105 259.748 177.94 266.401 181.488C273.053 185.036 280.593 201.002 280.593 201.002L269.062 213.864H242.452L230.478 200.559L225.599 177.94L232.252 172.618C232.252 172.618 239.348 154.878 239.348 145.565C239.348 136.252 267.288 153.105 267.288 153.105Z" fill="#FFB9B9"/>
<path d="M269.505 180.601C269.505 180.601 264.183 179.271 267.288 184.593C270.392 189.915 273.497 199.672 262.409 200.115C251.322 200.559 240.235 194.793 236.687 182.819C233.139 170.844 231.808 171.731 230.478 172.175C229.147 172.618 214.955 187.254 214.955 187.254L219.834 214.751L221.608 313.207H286.358C286.358 313.207 289.019 284.823 284.584 278.171C280.149 271.518 288.576 254.665 288.576 254.665C288.576 254.665 296.115 243.134 290.35 220.96C284.584 198.785 271.723 180.601 269.505 180.601Z" fill="#FF0000"/>
<path d="M233.582 172.175C233.582 172.175 226.93 169.07 221.164 174.392C215.399 179.714 202.537 184.149 202.537 186.81C202.537 189.471 213.625 265.309 206.085 278.614C198.546 291.919 190.563 313.207 190.563 313.207H227.556C227.556 313.207 233.582 291.032 239.791 279.058C246 267.083 245.556 233.377 243.782 223.177C242.008 212.977 233.582 172.175 233.582 172.175Z" fill="#575A89"/>
<path d="M194.554 289.702L196.714 313.207H220.684L218.503 283.936L194.554 289.702Z" fill="#FFB9B9"/>
<path d="M303.655 277.284L309.42 313.207H437.591L448.678 240.917L303.655 277.284Z" fill="#3F3D56"/>
<path d="M453.556 236.038L454.887 242.691L289.019 282.606V276.84L453.556 236.038Z" fill="#3F3D56"/>
<path d="M383.484 248.013L382.597 255.552L392.354 254.222L388.362 246.682L383.484 248.013Z" fill="#3F3D56"/>
<path d="M329.821 171.731C329.821 171.731 349.335 170.401 354.657 185.48C359.979 200.559 372.397 227.612 377.275 231.603C382.154 235.595 387.476 246.239 386.589 249.787" stroke="#3F3D56" stroke-width="2.21748" stroke-miterlimit="10"/>
<path d="M332.704 171.51C332.704 173.592 330.49 175.279 326.938 175.279C323.387 175.279 321.616 173.592 321.616 171.51C321.616 169.428 323.387 167.74 326.938 167.74C330.49 167.74 332.704 169.428 332.704 171.51Z" fill="#FF0000"/>
<path d="M299.885 240.695C299.885 240.695 303.211 226.725 297.002 206.324C290.793 185.923 289.906 191.245 287.689 188.141C285.471 185.036 264.203 178.311 264.203 178.311C264.355 179.89 266.703 184.749 269.789 190.562C269.233 188.467 268.392 186.458 267.288 184.593C264.183 179.271 269.505 180.601 269.505 180.601C271.723 180.601 284.584 198.785 290.35 220.959C296.115 243.134 288.576 254.665 288.576 254.665L299.885 240.695Z" fill="#575A89"/>
<path d="M264.405 178.162C264.405 178.162 267.031 188.122 269.266 189.573C271.501 191.023 284.757 204.796 284.757 204.796L283.032 193.684L275.936 183.041L274.049 181.671L264.405 178.162Z" fill="#575A89"/>
<path opacity="0.1" d="M205.42 208.763L206.038 185.923C206.038 185.923 191.45 192.132 190.119 218.742C188.789 245.352 192.337 295.467 197.215 295.91C202.094 296.354 225.156 291.032 225.156 291.032C225.156 291.032 228.704 226.725 227.373 218.299C226.043 209.872 205.42 208.763 205.42 208.763Z" fill="black"/>
<path d="M206.529 185.923H202.934C202.934 185.923 188.345 192.132 187.015 218.742C185.684 245.352 189.232 295.467 194.111 295.91C198.989 296.354 222.051 291.032 222.051 291.032C222.051 291.032 225.599 226.725 224.269 218.299C222.938 209.872 206.529 185.923 206.529 185.923Z" fill="#575A89"/>
<path d="M225.377 156.874C240.563 156.874 252.874 143.074 252.874 126.051C252.874 109.028 240.563 95.2281 225.377 95.2281C210.191 95.2281 197.881 109.028 197.881 126.051C197.881 143.074 210.191 156.874 225.377 156.874Z" fill="#3F3D56"/>
<path d="M245.113 151.109C248.175 151.109 250.657 147.435 250.657 142.904C250.657 138.373 248.175 134.699 245.113 134.699C242.051 134.699 239.569 138.373 239.569 142.904C239.569 147.435 242.051 151.109 245.113 151.109Z" fill="#FFB9B9"/>
<path d="M197.881 117.846C210.372 117.846 220.499 107.72 220.499 95.2281C220.499 82.7364 210.372 72.6098 197.881 72.6098C185.389 72.6098 175.262 82.7364 175.262 95.2281C175.262 107.72 185.389 117.846 197.881 117.846Z" fill="#3F3D56"/>
<path d="M200.804 113.348C197.518 115.02 193.873 115.863 190.187 115.804C186.501 115.746 182.885 114.787 179.654 113.011C176.423 111.235 173.675 108.696 171.65 105.616C169.624 102.535 168.383 99.0064 168.033 95.3363C167.55 98.5043 167.746 101.739 168.607 104.826C169.469 107.912 170.977 110.781 173.031 113.24C175.085 115.7 177.638 117.696 180.522 119.094C183.405 120.492 186.553 121.262 189.756 121.352C192.96 121.442 196.146 120.85 199.103 119.615C202.06 118.381 204.722 116.532 206.91 114.191C209.099 111.85 210.765 109.071 211.799 106.037C212.832 103.004 213.209 99.7854 212.904 96.5952C212.366 100.149 210.987 103.523 208.883 106.437C206.778 109.351 204.009 111.72 200.804 113.348V113.348Z" fill="#3F3D56"/>
<path d="M185.472 98.9666C183.201 96.0626 181.674 92.6473 181.024 89.0182C180.375 85.3892 180.622 81.6563 181.745 78.1448C182.868 74.6332 184.832 71.4494 187.467 68.8706C190.102 66.2918 193.327 64.3961 196.862 63.3488C193.66 63.4825 190.523 64.2953 187.659 65.7331C184.795 67.1709 182.269 69.201 180.249 71.6888C178.229 74.1765 176.761 77.0652 175.942 80.1634C175.122 83.2616 174.971 86.4985 175.497 89.6597C176.024 92.8208 177.216 95.834 178.995 98.4995C180.774 101.165 183.099 103.422 185.816 105.121C188.533 106.82 191.581 107.922 194.756 108.354C197.932 108.786 201.163 108.539 204.235 107.628C200.644 107.781 197.068 107.076 193.805 105.569C190.541 104.063 187.684 101.799 185.472 98.9666Z" fill="#3F3D56"/>
<path d="M258.64 124.055C267.457 124.055 274.606 118.893 274.606 112.525C274.606 106.156 267.457 100.994 258.64 100.994C249.822 100.994 242.674 106.156 242.674 112.525C242.674 118.893 249.822 124.055 258.64 124.055Z" fill="#3F3D56"/>
</g>
<defs>
<clipPath id="clip0">
<rect width="275" height="390.132" fill="white" transform="translate(1096 24)"/>
</clipPath>
<clipPath id="clip1">
<rect width="416" height="267.872" fill="white" transform="translate(142 46)"/>
</clipPath>
</defs>
</svg>
